<svg width="156" height="167" viewBox="0 0 156 167" fill="none" xmlns="http://www.w3.org/2000/svg">
<path d="M2.40185 102.976C5.02372 84.7121 9.66836 75.9796 19.116 60.9566C18.5478 39.2634 19.9873 27.1491 25.9537 5.63158C26.9347 -2.71217 35.1055 12.9807 47.986 36.4455C62.7163 28.9078 71.939 27.4173 90.5312 30.843C101.65 7.45997 108.222 -6.88702 109.525 5.63158L113.323 39.9471C123.996 46.7933 128.892 51.6329 136.875 60.9566C146.105 74.0993 147.814 82.3147 152.07 96.6728C153.686 102.92 154.529 106.473 154.349 114.181C150.47 125.171 146.811 130.506 139.154 139.392C138.396 147.654 138 152.239 136.875 161.102C132.899 164.923 130.08 165.397 124.719 165.304C121.068 163.96 119.029 163.198 117.882 159.001V144.995L117.833 145.028C114.569 147.236 112.724 148.484 109.525 150.597C103.539 152.202 100.184 153.096 94.3299 154.099C91.6784 157.968 90.1783 159.33 87.4923 161.102C81.8332 161.577 78.9158 161.463 73.817 161.102C70.261 159.886 68.8681 158.916 66.9794 156.9C62.1329 158.359 59.4886 159.272 53.3042 159.001C46.8247 158.629 43.5157 157.981 39.6289 154.099C36.9853 149.841 36.4643 147.388 37.3497 142.894C22.6544 139.482 15.2262 136.472 6.20053 125.386C1.54036 116.603 0.210112 111.692 2.40185 102.976Z" fill="black" stroke="black" stroke-width="2"/>
<path d="M107.245 72.1618L117.882 73.5624" stroke="white"/>
<path d="M104.966 79.1649L117.122 84.7675" stroke="white"/>
<path d="M29.7523 75.6633H16.0771" stroke="white"/>
<path d="M30.512 81.2659L16.8368 90.37" stroke="white"/>
<ellipse cx="44.947" cy="63.0576" rx="14.435" ry="14.0063" fill="white"/>
<ellipse cx="89.0117" cy="63.0576" rx="14.435" ry="14.0063" fill="white"/>
<ellipse cx="44.9471" cy="63.0576" rx="12.9155" ry="12.6057" fill="black"/>
<ellipse cx="89.0117" cy="63.0576" rx="12.9155" ry="12.6057" fill="black"/>
</svg>
