<svg width="158" height="162" viewBox="0 0 158 162" fill="none" xmlns="http://www.w3.org/2000/svg">
<path d="M58 122.5L50.5199 79.1157C50.1915 80.1493 30.7768 70.7339 27.5 67.5C24.1288 64.173 25.5 62.5 25.5 62.5C27.4548 54.9443 29.6565 51.3579 34.5 45.5C33.5384 30.9198 32.8741 22.7484 38.5 8C43.3216 15.5156 45.435 20.2959 48.5 29.5C55.8673 26.8736 59.3088 26.7772 65 27.5C66.7399 17.2593 69.0455 11.6542 76.5 2C79.7188 15.006 81.7683 22.2653 79.5 36C82.363 43.2313 83.5552 46.9522 86.5 57C90.2674 67.8019 90.2245 73.6983 92.5 84L109 107.5C117.028 114.698 121.483 118.884 130 124.5C140.852 130.69 146.202 134.345 153.5 140C157.186 143.949 158.604 146.454 156.5 153C155.652 155.75 153.233 156.909 146.5 158.5C144.042 158.019 139.798 157.92 119.5 158.5C103.673 159.952 95.5354 160.196 82.5 161C73.8979 160.011 71.4251 157.856 68.5 153L58 122.5Z" fill="black" stroke="black"/>
<path d="M74 60.5L80 57" stroke="white"/>
<path d="M73 67.5L78.5 70" stroke="white"/>
<path d="M18 58.5L26 60" stroke="black"/>
<path d="M18 71.5L26 65.5" stroke="black"/>
<circle cx="69" cy="49.5" r="9" fill="white"/>
<circle cx="69" cy="49.5" r="8" fill="black"/>
<circle cx="46" cy="49.5" r="9" fill="white"/>
<circle cx="46" cy="49.5" r="8" fill="black"/>
<path d="M1 23.6764C3.20183 21.5655 4.4062 20.3898 6.1 18.4102C8.09272 15.6633 9.75259 15.0607 13.75 15.7772C16.0957 18.0516 16.2562 19.3538 15.45 21.7016L8.65 24.9929C6.72267 26.1587 6.13483 27.1476 6.1 29.6008C8.47982 31.9052 10.2682 32.051 13.75 31.5756" stroke="white"/>
<ellipse cx="15.45" cy="35.5252" rx="2.55" ry="1.9748" fill="white"/>
</svg>
