<svg width="152" height="103" viewBox="0 0 152 103" fill="none" xmlns="http://www.w3.org/2000/svg">
<path d="M21.5875 80.3118C17.2734 75.9971 15.9229 73.4484 17.563 68.4121C21.6511 62.8384 24.8292 62.4056 31.518 64.7334C36.0353 69.1276 36.3475 71.6013 35.8201 76.0185C31.814 81.8877 28.6078 82.5862 21.5875 80.3118Z" fill="black" stroke="black"/>
<ellipse cx="3.95564" cy="4.04608" rx="3.95564" ry="4.04608" transform="matrix(0.923089 0.384587 -0.41171 0.911315 41.8103 67.561)" fill="black"/>
<ellipse cx="3.95564" cy="4.04608" rx="3.95564" ry="4.04608" transform="matrix(0.923089 0.384587 -0.41171 0.911315 37.1772 55.4077)" fill="black"/>
<ellipse cx="3.95564" cy="4.04608" rx="3.95564" ry="4.04608" transform="matrix(0.923089 0.384587 -0.41171 0.911315 27.4402 51.351)" fill="black"/>
<ellipse cx="3.95564" cy="4.04608" rx="3.95564" ry="4.04608" transform="matrix(0.923089 0.384587 -0.41171 0.911315 14.3715 54.6687)" fill="black"/>
<path d="M106.58 34.624C113.639 26.4039 114.668 21.4825 109.649 11.9722C115.349 20.2203 119.469 23.5293 131.152 23.2684C123.02 27.1787 123.082 32.3728 124.959 42.7845C119.383 35.458 115.965 32.104 106.58 34.624Z" fill="#FFF7D5"/>
<path d="M16.0108 97.718C13.2887 86.5045 11.5043 82.0026 9.47083 66.0311C8.1582 47.8181 8.26794 37.5798 7.97408 19.3341L10.258 4.41255" stroke="black" stroke-width="2"/>
<path d="M1.29292 8.12024L56.4455 6.35247L147.069 10.2885" stroke="black" stroke-width="2"/>
<path d="M132.54 0.493134L134.274 54.609L135.575 95.1959L135.679 98.4428" stroke="black" stroke-width="2"/>
<path d="M2.75081 90.564C9.52865 89.8722 17.0022 89.5135 50.5417 89.0322C70.2456 90.2751 81.1474 91.0301 99.64 92.7573L150.845 91.116" stroke="black" stroke-width="2"/>
<path d="M41.1145 55.1423L40.9886 54.2099C40.5583 54.2717 40.1273 54.3095 39.6956 54.3234C38.4322 54.3638 37.2762 54.2568 36.2275 54.0023C35.1783 53.7318 34.3746 53.3813 33.8166 52.951C33.5037 51.6804 33.3252 50.3574 33.2812 48.9821C33.2345 47.5269 33.356 46.0742 33.6457 44.6242C33.9349 43.1582 34.4193 41.79 35.099 40.5195C35.7941 39.2326 36.7275 38.1381 37.8992 37.2361L42.6227 40.0142C41.1817 41.0049 39.9384 42.1733 38.893 43.5195C37.8631 44.8492 37.0759 46.2591 36.5313 47.7494C36.0028 49.239 35.7621 50.7195 35.8092 52.1908C36.6944 52.3385 37.5608 52.3988 38.4084 52.3716C39.2719 52.3439 40.045 52.2391 40.7275 52.0571L40.0794 46.8192L44.6278 46.3853L43.4592 54.8751L41.1145 55.1423ZM48.8459 54.2462C48.75 54.2493 48.646 54.2526 48.5341 54.2562C48.4381 54.2592 48.3419 54.2543 48.2454 54.2414C47.6899 53.891 47.2327 53.3614 46.8738 52.6525C46.5304 51.9272 46.3462 51.1727 46.321 50.3891C46.3 49.7334 46.4345 49.1848 46.7245 48.7433C47.0145 48.3018 47.548 47.9645 48.3249 47.7315C49.1173 47.482 50.2332 47.3342 51.6724 47.2881C52.0243 47.2768 52.4006 47.2807 52.8014 47.2999C53.2017 47.3031 53.6268 47.3295 54.0766 47.3791L54.0117 46.8529C53.9267 46.1993 53.5985 45.6975 53.027 45.3477C52.4715 44.9973 51.8179 44.8341 51.0663 44.8582C50.6505 44.8716 50.2128 44.9496 49.7531 45.0924C49.3095 45.2347 48.8681 45.449 48.429 45.7352L47.2621 42.2908C47.7826 42.05 48.4481 41.8365 49.2586 41.6505C50.0845 41.4479 50.9373 41.3325 51.8168 41.3044C52.9842 41.2669 54.0051 41.4023 54.8794 41.7105C55.7697 42.0181 56.4663 42.524 56.9691 43.2283C57.4874 43.916 57.7653 44.8436 57.8027 46.011C57.8073 46.1549 57.8047 46.3231 57.7948 46.5155C57.801 46.7074 57.7974 46.8436 57.7839 46.9241L57.3245 53.5662L54.9566 53.8582L54.4853 50.3915L54.2934 50.3977C53.8016 51.534 53.0866 52.4534 52.1487 53.1558C51.2262 53.8417 50.1252 54.2052 48.8459 54.2462ZM50.5589 51.5019C50.9086 51.4266 51.3208 51.3014 51.7955 51.1261C52.2856 50.9343 52.7481 50.6313 53.1831 50.2172C53.6335 49.7865 53.9741 49.1753 54.2048 48.3835C53.9969 48.3902 53.7891 48.3968 53.5812 48.4035C53.3728 48.3942 53.1566 48.3931 52.9327 48.4003C52.437 48.4161 51.9895 48.4385 51.5902 48.4673C51.1909 48.4961 50.7767 48.5574 50.3474 48.6512C50.2881 48.7972 50.2218 48.9754 50.1485 49.1859C50.0752 49.3963 50.0436 49.6615 50.0539 49.9813C50.0626 50.2531 50.1201 50.5475 50.2263 50.8642C50.332 51.165 50.4428 51.3775 50.5589 51.5019ZM62.4187 53.619L60.6586 36.9149L65.7666 35.9587L64.7865 53.327L62.4187 53.619ZM70.8987 53.3472L69.1386 36.643L74.2466 35.6869L73.2665 53.0552L70.8987 53.3472ZM83.7754 53.1506C82.528 53.1906 81.421 53.114 80.4543 52.9209C79.4876 52.7278 78.6765 52.3936 78.0209 51.9183C77.8565 51.2833 77.7341 50.7109 77.6537 50.2012C77.5888 49.675 77.549 49.1801 77.5341 48.7163C77.4885 47.293 77.6626 45.9828 78.0564 44.7855C78.4663 43.5878 79.0014 42.5541 79.6619 41.6845C80.3219 40.7989 81.013 40.1364 81.7353 39.6971C82.3992 39.9319 83.0728 40.2225 83.7563 40.5688C84.4552 40.8986 85.1002 41.2941 85.6913 41.7554C86.2824 42.2167 86.7636 42.7456 87.1349 43.342C87.5056 43.9224 87.7026 44.5724 87.7256 45.292C87.7497 46.0437 87.634 46.6797 87.3786 47.2001C87.1386 47.7041 86.6789 48.095 85.9994 48.3729C85.32 48.6508 84.3326 48.8105 83.0373 48.8521C82.4936 48.8695 81.9651 48.8624 81.4518 48.8308C80.9545 48.7988 80.5207 48.7486 80.1503 48.6805C79.8705 49.4418 79.7437 50.2303 79.7699 51.0459C80.1392 51.082 80.5403 51.1092 80.9731 51.1274C81.4054 51.1295 81.8214 51.1242 82.2212 51.1114C82.9728 51.0873 83.7387 51.0067 84.5187 50.8696C85.3142 50.7161 86.1071 50.4826 86.8974 50.1691L87.6917 52.4728C87.0587 52.7012 86.4076 52.8661 85.7385 52.9676C85.0694 53.0691 84.415 53.1301 83.7754 53.1506ZM81.6022 47.5294C82.2099 47.5099 82.8165 47.4584 83.4222 47.375C84.0438 47.291 84.5849 47.1936 85.0456 47.0828C85.0834 46.7614 85.0976 46.4568 85.0884 46.169C85.0699 45.5933 84.9736 45.0841 84.7993 44.6415C84.6405 44.1823 84.4435 43.7804 84.2084 43.4358C83.3318 44.0562 82.6082 44.7037 82.0375 45.3783C81.4828 46.0524 81.0016 46.7722 80.5939 47.5377C80.7543 47.5485 80.9225 47.5511 81.0984 47.5455C81.2743 47.5399 81.4422 47.5345 81.6022 47.5294ZM92.0725 52.6686L90.4678 40.8099L95.5758 39.8538L95.219 43.7072L95.3869 43.7018C95.9521 42.355 96.6384 41.2925 97.4459 40.5142C98.2688 39.7194 99.1668 39.2664 100.14 39.1552L99.6318 44.2861C99.3749 44.2623 99.1263 44.2463 98.8859 44.238C98.661 44.2132 98.4366 44.2043 98.2127 44.2115C97.5251 44.2336 96.9382 44.4044 96.4522 44.7242C95.9822 45.0434 95.5999 45.5999 95.3051 46.3938C95.0259 47.1711 94.8206 48.2583 94.6893 49.6552L94.4404 52.3766L92.0725 52.6686ZM104.307 57.0068C103.843 57.0217 103.361 56.9491 102.859 56.7891C102.375 56.6446 101.886 56.3881 101.394 56.0197L102.074 54.7732C102.608 54.9482 103.131 55.0275 103.643 55.0111C104.347 54.9886 104.956 54.7689 105.471 54.3522C106.002 53.935 106.325 53.2843 106.441 52.4001L101.089 40.4935L106.197 39.5374L108.075 48.6979L108.267 48.6917L111.068 39.4532L113.028 39.9187L108.243 53.1828C107.905 54.1381 107.545 54.886 107.162 55.4266C106.796 55.9826 106.384 56.38 105.928 56.6187C105.471 56.8575 104.931 56.9869 104.307 57.0068Z" fill="white"/>
</svg>
