<svg width="177" height="189" viewBox="0 0 177 189" fill="none" xmlns="http://www.w3.org/2000/svg">
<path d="M135.5 84.5L142.5 83" stroke="black"/>
<path d="M135.5 90.5L143 93" stroke="black"/>
<path d="M75 26C68.3727 41.4462 65.4402 50.1703 63.5 66C60.541 65.2022 57.0953 65.0267 42.5 66C34.4373 67.3641 30.4516 68.7374 24.5 72.5C14.8722 77.7755 11.1718 82.2482 6 91.5C2.18884 98.8029 1.36027 103.529 1 112.5C1.75479 120.831 3.49769 124.834 10.5 130C30.3979 135.526 41.607 138.426 63.5 136.5C84.3126 135.529 96.0102 134.421 117 130C121.091 121.147 123.578 116.372 121.5 101.5C128.73 97.9987 132.76 95.9926 137 87C135.006 83.7305 133.537 81.8786 129.5 78.5C125.625 68.2899 122.792 64.5268 117 60C119.083 48.8701 119.944 42.6299 117 31.5C109.51 36.1098 104.907 39.1818 98.5 48C93.0792 46.7606 90.3954 47.3464 85.5 48C82.8681 38.8739 81.1754 33.8362 75 26Z" fill="black" stroke="black"/>
<ellipse cx="87" cy="68.5" rx="9" ry="9.5" fill="white"/>
<ellipse cx="113" cy="69.5" rx="9" ry="9.5" fill="white"/>
<ellipse cx="87" cy="68.5" rx="8" ry="8.5" fill="black"/>
<ellipse cx="113" cy="69.5" rx="8" ry="8.5" fill="black"/>
<path d="M75.5 84L65 86.5" stroke="white"/>
<path d="M76.1474 90L66.6424 95.1143" stroke="white"/>
<path d="M115.515 166.535C106.157 171.279 101.25 172.161 93.7869 167.002C86.7048 157.65 87.6373 152.34 94.9458 142.794C104.54 137.765 108.786 138.508 115.804 141.573C123.416 150.942 122.908 156.43 115.515 166.535Z" fill="white"/>
<ellipse cx="114.574" cy="127.161" rx="6.72715" ry="6.90917" transform="rotate(-49.1131 114.574 127.161)" fill="white"/>
<ellipse cx="92.1114" cy="128.475" rx="6.72715" ry="6.90917" transform="rotate(-49.1131 92.1114 128.475)" fill="white"/>
<ellipse cx="80.369" cy="142.037" rx="6.72715" ry="6.90917" transform="rotate(-49.1131 80.369 142.037)" fill="white"/>
<ellipse cx="79.0734" cy="164.644" rx="6.72715" ry="6.90917" transform="rotate(-49.1131 79.0734 164.644)" fill="white"/>
<path d="M109 48C133.895 36.092 141.657 25.4136 141 -3C144.578 23.1374 150.111 35.659 176.5 48C153.992 48.3655 148.365 60.9097 141 88C136.676 64.2134 132.763 52.364 109 48Z" fill="#FFF7D5"/>
</svg>
