<svg width="157" height="168" viewBox="0 0 157 168" fill="none" xmlns="http://www.w3.org/2000/svg">
<path d="M22.0464 35.5C29.7893 24.1924 30.0053 19.8683 39.5464 12C48.4149 9.54004 53.1106 7.68805 62.0464 6C71.0316 3.27815 74.7713 2.16995 82.5464 2C96.2738 2.84057 101.331 5.28544 110.546 9.5L127.546 19C137.819 27.0028 141.847 32.2029 146.546 42.5C150.542 53.4521 151.965 59.6874 154.45 70.5783L154.546 71C156.157 83.8875 156.223 91.2585 150.046 105.5C150.937 109.679 151.117 111.993 150.046 116C135.634 124.421 128.802 129.173 110.546 137.5C107.194 139.741 105.375 140.951 102.677 142.748L101.546 143.5C100.959 151.16 98.9441 155.195 96.0464 162.5C91.7376 166.246 88.6137 166.167 82.5464 164.5C78.5172 160.569 77.2848 157.935 78.0464 152L90.0464 135H62.0464C52.0359 134.116 46.5987 134.45 36.0464 131C27.6317 128.959 23.3235 126.816 16.0464 122C10.7136 118.464 8.69594 115.979 4.54643 110.5C1.70911 104.761 0.635436 101.11 4.54643 97.5V82.5L5.54643 78.5C4.62339 78.9336 4.1015 79.0465 3.04643 75.5C3.65468 68.5838 5.21275 68.731 9.04643 70.5C7.29369 67.8596 7.57472 66.3121 9.04643 63.5C9.43864 62.5024 9.77979 61.8524 10.0912 61.4457C9.70345 60.9119 9.34772 59.8804 9.04643 58C9.23574 54.9873 9.75418 53.9432 12.5464 55L15.0464 54L11.5464 50.5C10.4193 48.9379 10.5831 48.0621 11.5464 46.5C13.6943 44.3402 14.8985 44.5775 17.0464 46.5C16.9873 40.9873 18.1332 38.6075 22.0464 35.5Z" fill="black" stroke="black" stroke-width="3"/>
<ellipse cx="48.0464" cy="67.5" rx="13.5" ry="14" fill="white"/>
<ellipse cx="48.0464" cy="67.5" rx="12.5" ry="13" fill="black"/>
<ellipse cx="91.0464" cy="67.5" rx="13.5" ry="14" fill="white"/>
<ellipse cx="91.0464" cy="67.5" rx="12.5" ry="13" fill="black"/>
<path d="M32.5464 83.5H22.5464" stroke="white"/>
<path d="M34.5464 90L25.0464 93" stroke="white"/>
<path d="M106.546 80.5H116.046" stroke="white"/>
<path d="M104.046 86.5L114.546 90.5" stroke="white"/>
</svg>
