<svg width="152" height="103" viewBox="0 0 152 103" fill="none" xmlns="http://www.w3.org/2000/svg">
<path d="M24.3757 81.4734C19.3766 76.2319 17.8475 73.1027 19.9476 66.8004C24.9736 59.7631 28.7642 59.1378 36.6453 61.8454C41.8835 67.1802 42.1808 70.2449 41.4218 75.7472C36.4845 83.1493 32.6525 84.1055 24.3757 81.4734Z" fill="black" stroke="black"/>
<ellipse cx="4.65268" cy="5.07715" rx="4.65268" ry="5.07715" transform="matrix(0.923089 0.384587 -0.41171 0.911315 48.795 65.0747)" fill="black"/>
<ellipse cx="4.65268" cy="5.07715" rx="4.65268" ry="5.07715" transform="matrix(0.923089 0.384587 -0.41171 0.911315 43.6511 50.1035)" fill="black"/>
<ellipse cx="4.65268" cy="5.07715" rx="4.65268" ry="5.07715" transform="matrix(0.923089 0.384587 -0.41171 0.911315 32.1982 45.3318)" fill="black"/>
<ellipse cx="4.65268" cy="5.07715" rx="4.65268" ry="5.07715" transform="matrix(0.923089 0.384587 -0.41171 0.911315 16.5647 49.814)" fill="black"/>
<path d="M103.882 38.6441C110.941 30.4239 111.97 25.5025 106.95 15.9922C112.65 24.2403 116.771 27.5493 128.453 27.2884C120.322 31.1987 120.384 36.3928 122.26 46.8045C116.684 39.478 113.266 36.124 103.882 38.6441Z" fill="#FFF7D5"/>
<path d="M16.0108 97.718C13.2887 86.5045 11.5043 82.0025 9.47082 66.0311C8.1582 47.8181 8.26793 37.5797 7.97408 19.3341L10.258 4.41252" stroke="black" stroke-width="2"/>
<path d="M1.29291 8.12021L56.4455 6.35244L147.069 10.2885" stroke="black" stroke-width="2"/>
<path d="M132.54 0.493103L134.274 54.609L135.575 95.1959L135.679 98.4428" stroke="black" stroke-width="2"/>
<path d="M2.75081 90.564C9.52865 89.8722 17.0022 89.5134 50.5417 89.0322C70.2456 90.275 81.1474 91.0301 99.64 92.7572L150.845 91.116" stroke="black" stroke-width="2"/>
<path d="M28.836 39.6148L28.0828 33.3477L23.0345 33.9177L22.638 39.5253L20.2469 39.842L18.3691 23.958L23.8267 23.4229L23.1912 32.0637L27.9183 31.9602L26.9582 23.7308L32.4158 23.1956L31.2271 39.298L28.836 39.6148ZM41.353 39.4057C40.2176 39.442 39.2458 39.3371 38.4375 39.0909C37.6457 38.8601 36.9955 38.5528 36.4869 38.1689C36.3385 37.5333 36.2228 36.9207 36.1399 36.3311C36.0724 35.7249 36.0297 35.142 36.0118 34.5823C35.9759 33.4629 36.1025 32.4183 36.3916 31.4485C36.6967 30.4782 37.0773 29.6176 37.5335 28.8666C38.0051 28.0991 38.4891 27.4673 38.9855 26.9711C39.4813 26.459 39.9023 26.1093 40.2485 25.9221C40.9799 26.2669 41.7059 26.6918 42.4265 27.197C43.147 27.7022 43.8064 28.2974 44.4047 28.9825C45.0189 29.6672 45.5161 30.4437 45.8961 31.312C46.2761 32.1802 46.4835 33.1581 46.5184 34.2455C46.5538 35.349 46.4313 36.2734 46.151 37.0187C45.8708 37.7641 45.3527 38.333 44.5969 38.7254C43.8416 39.1338 42.7603 39.3605 41.353 39.4057ZM39.9908 37.3602C40.5985 37.3408 41.2049 37.2813 41.81 37.1819C42.4306 37.0659 42.9703 36.9206 43.4289 36.7458C43.5404 36.2299 43.62 35.7151 43.6675 35.2013C43.7151 34.6876 43.7309 34.1828 43.7151 33.687C43.6664 32.1678 43.3019 30.7868 42.6218 29.5439C41.7411 30.0364 40.9703 30.7095 40.3093 31.5631C39.6478 32.4007 39.133 33.3217 38.765 34.326C38.4124 35.3138 38.2518 36.2954 38.2831 37.2709C38.7979 37.3505 39.3671 37.3802 39.9908 37.3602ZM50.6554 38.8914L49.0507 27.0327L54.1587 26.0766L53.8228 29.8333L53.9908 29.8279C54.5115 28.5946 55.1204 27.6146 55.8175 26.8878C56.5301 26.1446 57.2861 25.7602 58.0857 25.7346C58.3896 25.7249 58.687 25.7633 58.9779 25.8501C59.3435 26.2706 59.6581 26.8448 59.9216 27.5727C60.201 28.3001 60.4348 29.1011 60.6229 29.9755L60.8148 29.9693C61.332 28.6241 61.9541 27.5556 62.6811 26.7639C63.4236 25.9557 64.2106 25.5383 65.0422 25.5116C65.346 25.5019 65.6434 25.5404 65.9343 25.6271C66.3165 26.0631 66.6481 26.6688 66.929 27.4442C67.21 28.2196 67.4458 29.0845 67.6365 30.0388C67.8272 30.9932 67.9787 31.9729 68.0909 32.9778C68.2026 33.9667 68.2889 34.9084 68.3495 35.8029C68.4102 36.6975 68.4508 37.4646 68.4713 38.1042L64.1605 38.4585C64.1107 36.9073 64.0517 35.5645 63.9833 34.4301C63.9309 33.2952 63.8576 32.257 63.7634 31.3156C63.6847 30.3576 63.5897 29.3921 63.4785 28.4192C63.1942 28.5404 62.8811 28.7585 62.539 29.0736C62.2129 29.3882 61.877 29.8953 61.5312 30.5947C61.2014 31.2936 60.8966 32.2719 60.6167 33.5295C60.3524 34.7706 60.14 36.3862 59.9797 38.3764L57.204 38.6815C57.1543 37.1303 57.0953 35.7875 57.0269 34.6531C56.9745 33.5182 56.9012 32.48 56.807 31.5385C56.7283 30.5806 56.6333 29.6151 56.5221 28.6422C56.2698 28.7623 55.9726 28.98 55.6305 29.2951C55.3044 29.6097 54.9752 30.0765 54.6429 30.6954C54.326 31.2979 54.0316 32.0997 53.7595 33.101C53.5034 34.1017 53.3113 35.3485 53.183 36.8414L53.0233 38.5994L50.6554 38.8914ZM77.4731 38.2479C76.2257 38.2879 75.1187 38.2113 74.152 38.0182C73.1853 37.8251 72.3742 37.4909 71.7186 37.0156C71.5542 36.3806 71.4318 35.8082 71.3514 35.2985C71.2865 34.7723 71.2467 34.2774 71.2318 33.8136C71.1862 32.3903 71.3603 31.0801 71.7541 29.8828C72.164 28.6851 72.6991 27.6514 73.3596 26.7818C74.0196 25.8962 74.7107 25.2337 75.433 24.7944C76.0969 25.0292 76.7705 25.3198 77.454 25.6661C78.1529 25.9959 78.7979 26.3914 79.389 26.8527C79.9801 27.314 80.4613 27.8429 80.8326 28.4393C81.2033 29.0197 81.4003 29.6697 81.4233 30.3893C81.4474 31.141 81.3317 31.777 81.0763 32.2974C80.8363 32.8014 80.3766 33.1923 79.6971 33.4702C79.0177 33.7481 78.0303 33.9078 76.735 33.9494C76.1912 33.9668 75.6627 33.9597 75.1495 33.9281C74.6522 33.8961 74.2184 33.8459 73.848 33.7778C73.5682 34.5391 73.4414 35.3276 73.4676 36.1432C73.8369 36.1794 74.238 36.2065 74.6708 36.2247C75.1031 36.2268 75.5191 36.2215 75.9189 36.2087C76.6705 36.1846 77.4364 36.104 78.2164 35.9669C79.0119 35.8134 79.8048 35.5799 80.5951 35.2664L81.3894 37.5701C80.7563 37.7985 80.1053 37.9635 79.4362 38.0649C78.7671 38.1664 78.1127 38.2274 77.4731 38.2479ZM75.2999 32.6267C75.9075 32.6072 76.5142 32.5557 77.1198 32.4723C77.7415 32.3883 78.2826 32.2909 78.7433 32.1801C78.781 31.8587 78.7953 31.5541 78.7861 31.2663C78.7676 30.6906 78.6713 30.1814 78.497 29.7388C78.3382 29.2796 78.1412 28.8777 77.9061 28.5331C77.0295 29.1535 76.3059 29.801 75.7352 30.4756C75.1805 31.1497 74.6993 31.8695 74.2916 32.635C74.452 32.6458 74.6202 32.6484 74.7961 32.6428C74.972 32.6372 75.1399 32.6318 75.2999 32.6267Z" fill="white"/>
<path d="M61.5409 71.582L59.6784 56.1777C60.1691 56.0019 60.7876 55.822 61.5341 55.638C62.2961 55.4375 63.131 55.2666 64.039 55.1255C64.9469 54.9843 65.8646 54.8989 66.7922 54.8692C67.6877 54.8404 68.5621 54.9005 69.4153 55.0492C70.2845 55.1974 71.0616 55.4687 71.7465 55.8629C72.0621 56.7173 72.2324 57.5362 72.2575 58.3198C72.299 59.6152 71.9596 60.7626 71.2393 61.7622C70.5344 62.7453 69.5768 63.5844 68.3664 64.2795C67.1556 64.9587 65.8119 65.49 64.3354 65.8735L63.932 71.2652L61.5409 71.582ZM64.4511 64.237C65.5195 63.6104 66.327 62.8321 66.8735 61.9022C67.4195 60.9562 67.6784 60.0434 67.6502 59.1639C67.6323 58.6042 67.4877 58.0885 67.2164 57.617C66.9606 57.1289 66.572 56.7412 66.0506 56.4537C65.8906 56.4588 65.7152 56.4805 65.5244 56.5186C65.3495 56.5562 65.1748 56.6019 65.0005 56.6555L64.4511 64.237ZM76.1541 71.3297C76.0581 71.3328 75.9542 71.3361 75.8422 71.3397C75.7463 71.3428 75.6501 71.3378 75.5536 71.3249C74.9981 70.9745 74.5409 70.4449 74.182 69.736C73.8386 69.0107 73.6543 68.2562 73.6292 67.4726C73.6082 66.8169 73.7427 66.2683 74.0327 65.8268C74.3227 65.3853 74.8561 65.048 75.6331 64.815C76.4255 64.5655 77.5413 64.4177 78.9806 64.3716C79.3324 64.3603 79.7087 64.3642 80.1096 64.3834C80.5099 64.3866 80.9349 64.413 81.3847 64.4626L81.3199 63.9364C81.2349 63.2828 80.9066 62.781 80.3351 62.4312C79.7796 62.0808 79.1261 61.9176 78.3744 61.9417C77.9587 61.9551 77.5209 62.0331 77.0613 62.1759C76.6176 62.3182 76.1762 62.5325 75.7372 62.8187L74.5702 59.3743C75.0908 59.1335 75.7563 58.9201 76.5667 58.734C77.3927 58.5314 78.2454 58.4161 79.125 58.3879C80.2924 58.3504 81.3132 58.4858 82.1876 58.794C83.0779 59.1016 83.7744 59.6075 84.2773 60.3118C84.7956 60.9995 85.0734 61.9271 85.1108 63.0945C85.1154 63.2384 85.1128 63.4066 85.103 63.599C85.1091 63.7909 85.1055 63.9271 85.0921 64.0076L84.6326 70.6497L82.2648 70.9417L81.7935 67.475L81.6016 67.4812C81.1097 68.6175 80.3948 69.5369 79.4568 70.2393C78.5343 70.9252 77.4334 71.2887 76.1541 71.3297ZM77.867 68.5854C78.2168 68.5102 78.629 68.3849 79.1036 68.2096C79.5937 68.0178 80.0562 67.7148 80.4912 67.3007C80.9416 66.87 81.2822 66.2588 81.513 65.467C81.3051 65.4737 81.0972 65.4803 80.8893 65.487C80.6809 65.4777 80.4648 65.4766 80.2409 65.4838C79.7451 65.4997 79.2976 65.522 78.8983 65.5508C78.499 65.5796 78.0848 65.6409 77.6556 65.7347C77.5962 65.8807 77.5299 66.0589 77.4566 66.2694C77.3833 66.4798 77.3518 66.745 77.362 67.0648C77.3708 67.3367 77.4282 67.631 77.5344 67.9477C77.6401 68.2485 77.751 68.4611 77.867 68.5854ZM96.6489 75.4032C95.7694 75.4314 94.9332 75.3141 94.1404 75.0514C93.3481 74.8046 92.5192 74.415 91.6537 73.8825L92.2869 72.6615C93.7301 73.2396 94.9475 73.5127 95.939 73.481C96.8505 73.4517 97.506 73.1746 97.9054 72.6495C98.3208 72.124 98.5156 71.4614 98.49 70.6618C98.4885 70.6138 98.4779 70.5341 98.4583 70.4227C98.4552 70.3267 98.4326 70.1194 98.3904 69.8005C98.3636 69.4652 98.2992 68.955 98.1972 68.2699C98.1107 67.5684 97.9837 66.6039 97.8163 65.3767L97.6244 65.3828C97.0391 67.0984 96.2307 68.349 95.1994 69.1344C94.1675 69.9039 93.0119 70.3091 91.7325 70.3501C91.6366 70.3532 91.4759 70.3343 91.2505 70.2935C91.0256 70.2687 90.8644 70.2339 90.7669 70.189C90.1567 69.6322 89.6496 68.792 89.2454 67.6684C88.8566 66.5283 88.6392 65.2386 88.5931 63.7993C88.5551 62.6159 88.6755 61.6276 88.9543 60.8342C89.233 60.0409 89.7258 59.4328 90.4326 59.0099C91.1554 58.5866 92.1485 58.3546 93.4118 58.3141C94.0675 58.2931 94.6857 58.3533 95.2666 58.4948C95.8634 58.6358 96.4148 58.8582 96.9208 59.1622L97.4262 58.4496L102.01 57.6063L100.784 71.0685C100.665 72.337 100.25 73.3668 99.5385 74.158C98.8435 74.9487 97.8803 75.3637 96.6489 75.4032ZM93.3014 68.3548C93.6037 68.2971 93.9749 68.1411 94.415 67.8869C94.8546 67.6167 95.29 67.2185 95.7214 66.6924C96.1528 66.1664 96.4991 65.4829 96.7603 64.6421C97.0369 63.7848 97.1555 62.7405 97.1161 61.5091C97.1104 61.3332 97.0971 61.1655 97.0759 61.0061C97.0703 60.8302 97.0564 60.6466 97.0343 60.4552C96.6737 60.1946 96.2513 60 95.7669 59.8715C95.2985 59.7424 94.8405 59.6851 94.3927 59.6994C93.801 59.7184 93.3009 59.8465 92.8922 60.0837C92.8251 60.486 92.7623 61.0243 92.7039 61.6986C92.6614 62.3723 92.6551 63.1729 92.6848 64.1004C92.7007 64.5961 92.7421 65.1391 92.8091 65.7293C92.8755 66.3034 92.9484 66.8294 93.0277 67.3071C93.1231 67.7843 93.2143 68.1335 93.3014 68.3548ZM111.388 70.2244C110.141 70.2643 109.034 70.1878 108.067 69.9946C107.1 69.8015 106.289 69.4673 105.634 68.9921C105.469 68.357 105.347 67.7847 105.266 67.275C105.202 66.7488 105.162 66.2538 105.147 65.79C105.101 64.3668 105.275 63.0565 105.669 61.8593C106.079 60.6615 106.614 59.6279 107.275 58.7583C107.935 57.8727 108.626 57.2102 109.348 56.7708C110.012 57.0057 110.686 57.2962 111.369 57.6425C112.068 57.9723 112.713 58.3678 113.304 58.8291C113.895 59.2904 114.376 59.8193 114.748 60.4157C115.118 60.9961 115.315 61.6462 115.338 62.3658C115.362 63.1174 115.247 63.7534 114.991 64.2739C114.751 64.7778 114.292 65.1688 113.612 65.4467C112.933 65.7246 111.945 65.8843 110.65 65.9258C110.106 65.9432 109.578 65.9362 109.064 65.9046C108.567 65.8725 108.133 65.8224 107.763 65.7542C107.483 66.5156 107.356 67.304 107.383 68.1196C107.752 68.1558 108.153 68.183 108.586 68.2011C109.018 68.2033 109.434 68.1979 109.834 68.1851C110.586 68.161 111.351 68.0804 112.131 67.9434C112.927 67.7898 113.72 67.5563 114.51 67.2428L115.304 69.5466C114.671 69.775 114.02 69.9399 113.351 70.0414C112.682 70.1429 112.028 70.2039 111.388 70.2244ZM109.215 64.6031C109.823 64.5836 110.429 64.5322 111.035 64.4487C111.656 64.3648 112.198 64.2674 112.658 64.1566C112.696 63.8352 112.71 63.5306 112.701 63.2427C112.683 62.667 112.586 62.1578 112.412 61.7152C112.253 61.256 112.056 60.8542 111.821 60.5095C110.944 61.1299 110.221 61.7774 109.65 62.4521C109.095 63.1262 108.614 63.846 108.207 64.6114C108.367 64.6223 108.535 64.6249 108.711 64.6192C108.887 64.6136 109.055 64.6082 109.215 64.6031Z" fill="white"/>
</svg>
