<svg width="167" height="175" viewBox="0 0 167 175" fill="none" xmlns="http://www.w3.org/2000/svg">
<path d="M3.88975 100.667C10.9993 99.7162 13.1964 101.907 14.7101 108.778C15.7459 101.147 18.4138 98.6559 27.6945 100.667C28.4023 105.72 27.9588 108.316 25.5305 112.833C22.2224 120.179 20.4709 122.356 14.7101 125C7.24229 122.284 4.40901 119.631 1.72568 112.833C0.615076 108.145 0.394684 105.504 3.88975 100.667Z" fill="white" stroke="white"/>
<path d="M115.5 77.9678C101.282 87.1982 94.1188 93.2278 87 109.968C85.5679 104.357 84.0673 101.46 79.5 96.9678C72.9317 104.95 71.5992 109.274 69.5 116.968C64.3439 115.691 61.1043 115.854 55 116.968C53.4441 108.607 53.551 103.644 46 96.9678C40.8001 106.058 39.5642 111.363 38.5 120.968L33.5 136.968C31.1955 138.755 29.6906 140.026 24.5 145.468C22.5674 148.426 22.98 150.666 24.5 154.968C15.289 153.643 13.7617 156.027 13 161.968C30.5014 166.243 37.3092 166.401 52 166.468C48.4237 168.957 47.7681 170.581 49.5 173.968H55C65.4545 172.223 71.3743 171.375 79.5 164.468C96.0003 163.653 104.963 163.543 125 158.468C139.686 152.57 147.597 148.896 157 136.968C163.592 124.146 164.817 116.464 163 101.968C165.089 92.7613 165.274 87.5 166 77.9678C165.266 53.5324 165.958 39.8134 160 15.4678C158.381 10.1018 157.867 6.99116 153 2.46783C146.895 0.434615 143.831 -0.107934 142 4.96783C142.281 13.0747 143.098 17.8665 145.5 28.4678C148.986 47.5127 148.677 58.4883 148 77.9678C136.235 70.1214 128.937 71.6643 115.5 77.9678Z" fill="black" stroke="black"/>
<path d="M78.5 145.468L89 147.468" stroke="white"/>
<path d="M22.5 137.468L28.5 141.468" stroke="black"/>
<path d="M19.5 144.468H27.5" stroke="black"/>
<path d="M77.5 151.968L88.5 157.468" stroke="white"/>
<ellipse cx="68.5" cy="133.968" rx="8" ry="8.5" fill="white"/>
<ellipse cx="68.5" cy="133.968" rx="7" ry="7.5" fill="black"/>
<ellipse cx="43.5" cy="133.968" rx="8" ry="8.5" fill="white"/>
<ellipse cx="43.5" cy="133.968" rx="7" ry="7.5" fill="black"/>
</svg>
