<svg width="220" height="189" viewBox="0 0 220 189" fill="none" xmlns="http://www.w3.org/2000/svg">
<ellipse cx="137.931" cy="76.7044" rx="1.97247" ry="1.89306" transform="rotate(96.5831 137.931 76.7044)" fill="white"/>
<ellipse cx="136.027" cy="71.1898" rx="1.97247" ry="1.89306" transform="rotate(96.5831 136.027 71.1898)" fill="white"/>
<ellipse cx="137.883" cy="66.1092" rx="1.97247" ry="1.89306" transform="rotate(96.5831 137.883 66.1092)" fill="white"/>
<ellipse cx="141.946" cy="63.9307" rx="1.97247" ry="1.89306" transform="rotate(96.5831 141.946 63.9307)" fill="white"/>
<ellipse cx="6.24106" cy="5.23656" rx="6.24106" ry="5.23656" transform="matrix(-0.972381 -0.233401 0.224212 -0.97454 152.363 79.1085)" fill="white"/>
<ellipse cx="120.871" cy="114.447" rx="1.97247" ry="1.89306" transform="rotate(96.5831 120.871 114.447)" fill="white"/>
<ellipse cx="115.555" cy="116.481" rx="1.97247" ry="1.89306" transform="rotate(96.5831 115.555 116.481)" fill="white"/>
<ellipse cx="112.595" cy="120.11" rx="1.97247" ry="1.89306" transform="rotate(96.5831 112.595 120.11)" fill="white"/>
<ellipse cx="113.246" cy="125.48" rx="1.97247" ry="1.89306" transform="rotate(96.5831 113.246 125.48)" fill="white"/>
<ellipse cx="5.68168" cy="4.60056" rx="5.68168" ry="4.60056" transform="matrix(-0.99996 -0.00895386 0.0172569 -0.999851 128.847 127.895)" fill="white"/>
<path d="M112.726 96.9605L134.313 108.056C136.117 110.417 135.148 111.331 129.397 112.122L117.487 110.747C112.937 110.955 110.458 111.706 106.227 114.742C104.28 119.17 104.26 121.776 104.87 126.499C108.563 130.818 110.866 131.399 115.075 131.648L132 133.601C138.738 134.64 142.18 135.558 148.072 137.442C151.059 140.498 152.817 142.037 156.17 144.333C159.718 146.087 161.541 147.419 166.6 147.522L177.86 143.527L188.568 138.806C189.612 140.569 189.533 141.828 187.89 144.684C185.505 147.005 184.155 148.177 181.645 149.258C177.637 151.784 175.927 153.777 173.067 157.534L161.105 162.111L153.984 163.274L140.82 161.755L130.615 156.606L122.919 151.747C118.862 146.806 115.247 144.486 107.675 140.722C107.675 140.722 103.287 140.216 101.181 141.958C99.074 143.7 99.9361 146.252 100.352 149.143L105.942 155.745L115.067 164.74L124.894 173.154C128.844 176.644 130.897 179.57 138.634 180.697C142.216 181.397 144.878 181.684 151.798 182.216C155.174 182.745 165.246 182.832 167.846 180.759C173.621 176.816 177.043 174.534 176.825 174.514C185.081 169.188 187.24 167.312 190.568 165.511C193.539 163.263 195.715 160.829 202.557 149.686C204.553 145.518 205.572 141.694 207.175 131.687C208.097 130.064 207.693 126.395 206.251 117.682C207.024 117.23 208.069 113.556 210.19 105.561C211.193 104.516 210.708 99.1521 208.365 82.8474C203.173 72.3156 199.254 67.679 191.972 59.7761C176.808 43.55 166.82 36.2787 147.722 24.886C139.942 19.38 134.065 17.4687 124.957 12.9928C121.39 12.1063 118.033 11.9375 112.42 11.5459C103.263 9.54824 97.789 8.75274 86.7186 8.57988L67.4844 15.6261C58.6339 18.9307 54.1752 21.4724 46.5442 26.4466C40.174 27.0607 36.6618 27.4496 31.0473 28.6293C25.9255 30.7959 23.142 32.2789 18.2325 35.0927C15.384 38.5776 14.0238 40.6812 13.8167 45.8346C14.9457 49.3037 15.7858 51.0723 18.7047 53.0172C21.7936 55.3398 23.9301 55.3243 28.1076 54.1024C18.6166 67.3032 13.8181 75.187 8.46492 92.2086C16.7 90.4671 21.3342 88.9842 29.6551 84.7262C29.9787 90.7136 31.3588 93.6032 35.7452 98.0043C30.3401 104.943 27.3375 108.852 24.0056 117.167C28.2204 119.734 30.9421 119.505 35.9159 118.542L29.5165 140.968C28.1322 145.749 29.2628 148.207 31.9963 152.506C33.3718 153.655 34.3908 153.908 37.0112 153.084C41.1046 149.771 43.4378 147.623 47.6954 143.066L62.5178 130.216C68.3522 123.428 71.4727 118.042 77.0663 108.73C82.6287 109.217 85.6624 109.882 91.7856 107.781L92.7655 99.2899C95.2191 97.0031 96.5437 95.0727 98.8357 90.7245L112.726 96.9605Z" fill="black" stroke="black" stroke-width="2"/>
<ellipse cx="49.2424" cy="69.1166" rx="12.4923" ry="11.3584" transform="rotate(96.5831 49.2424 69.1166)" fill="white"/>
<ellipse cx="65.1838" cy="96.1068" rx="12.4923" ry="11.3584" transform="rotate(96.5831 65.1838 96.1068)" fill="white"/>
<ellipse cx="49.2424" cy="69.1166" rx="11.1773" ry="10.0963" transform="rotate(96.5831 49.2424 69.1166)" fill="black"/>
<ellipse cx="65.1838" cy="96.1068" rx="11.1773" ry="10.0963" transform="rotate(96.5831 65.1838 96.1068)" fill="black"/>
<ellipse cx="32.0472" cy="41.9818" rx="5.91742" ry="5.04816" transform="rotate(96.5831 32.0472 41.9818)" fill="white"/>
<ellipse cx="24.6519" cy="34.5097" rx="1.97247" ry="1.89306" transform="rotate(96.5831 24.6519 34.5097)" fill="white"/>
<ellipse cx="21.5414" cy="39.4456" rx="1.97247" ry="1.89306" transform="rotate(96.5831 21.5414 39.4456)" fill="white"/>
<ellipse cx="20.7876" cy="45.9772" rx="1.97247" ry="1.89306" transform="rotate(96.5831 20.7876 45.9772)" fill="white"/>
<ellipse cx="25.3502" cy="50.4748" rx="1.97247" ry="1.89306" transform="rotate(96.5831 25.3502 50.4748)" fill="white"/>
<ellipse cx="5.84164" cy="4.47774" rx="5.84164" ry="4.47774" transform="matrix(-0.64408 0.764958 -0.73966 -0.67298 50.3582 135.807)" fill="white"/>
<ellipse cx="34.2061" cy="138.862" rx="1.97247" ry="1.89306" transform="rotate(96.5831 34.2061 138.862)" fill="white"/>
<ellipse cx="36.1105" cy="144.376" rx="1.97247" ry="1.89306" transform="rotate(96.5831 36.1105 144.376)" fill="white"/>
<ellipse cx="39.4194" cy="148.729" rx="1.97247" ry="1.89306" transform="rotate(96.5831 39.4194 148.729)" fill="white"/>
</svg>
