<svg width="128" height="149" viewBox="0 0 128 149" fill="none" xmlns="http://www.w3.org/2000/svg">
<path d="M61.3396 40.0006C67.9065 44.8281 71.1673 48.4914 76.6226 55.8446L78.8868 53.407C80.0214 47.5815 80.4932 44.6872 80.5849 41.2194C90.3966 48.015 93.6354 52.7188 100.396 60.7196H102.66L100.396 36.9537C96.8032 35.5826 95.1466 34.1936 93.0377 30.2504L96.434 26.5941C95.425 25.77 94.666 24.2138 93.0377 19.8909C95.6055 18.3607 96.9413 18.3065 99.2641 18.6721C96.2227 12.9361 95.298 9.00532 94.7358 1C101.664 1.96773 104.723 3.62183 108.887 8.31261C110.065 4.20828 111.055 2.30456 114.547 1C115.72 10.9969 116.104 16.4898 116.765 25.9259L116.811 26.5941L120.774 19.8909C121.937 21.0299 122.445 21.6146 122.472 22.3284V60.7196C125.494 62.0983 126.261 62.3796 127 62.5478C125.47 65.752 124.067 66.5072 121.34 67.4229V69.8604L122.472 71.0792L120.774 72.9073V77.7824L124.17 79.0012C125.59 80.897 125.389 81.9666 124.736 83.8762C120.669 88.8097 117.981 91.2833 112.849 95.4545C116.123 99.3524 117.608 101.5 119.075 105.205L108.887 108.252L111.151 111.299C114.942 112.801 117.044 113.923 120.774 116.174C116.498 118.576 113.907 119.659 108.887 121.049C109.037 127.236 109.191 130.705 107.755 136.893C105.927 137.685 104.848 137.868 102.66 136.893C102.148 139.728 100.903 140.63 100.396 144.205C99.8762 147.833 98.8285 148.678 95.8679 148.471C94.4898 147.918 94.0366 147.35 93.6038 146.033C91.872 140.584 91.3612 137.511 90.7736 132.018L81.1509 127.752C77.1026 131.752 74.119 133.698 68.1321 136.893L64.1698 132.018C64.1535 137.539 63.2837 140.597 61.3396 146.033C60.4125 148.464 58.9572 148.525 56.2453 148.471C53.498 148.608 52.6204 147.465 51.717 144.205L50.5849 122.267C45.6216 122.473 42.7392 122.112 37 118.611C39.9376 112.209 42.3986 109.372 47.7547 105.205C42.7843 102.863 40.5657 100.862 38.1321 95.4545C39.9703 89.7641 42.1394 87.8311 47.7547 86.3138L47.5893 86.1808C44.636 83.8073 42.9298 82.4361 41.5283 77.7824C45.4361 72.3785 48.1682 72.2862 52.8491 71.0792L51.717 60.7196L56.2453 65.5947C55.8239 55.0787 56.9807 49.4838 61.3396 40.0006Z" fill="black" stroke="black"/>
<ellipse cx="65.3019" cy="88.7513" rx="11.3208" ry="12.7971" fill="#FFF8F8"/>
<ellipse cx="95.8679" cy="88.7513" rx="11.3208" ry="12.7971" fill="#FFF8F8"/>
<ellipse cx="95.8679" cy="88.7513" rx="10.1887" ry="11.5783" fill="black"/>
<ellipse cx="65.3019" cy="88.7513" rx="10.1887" ry="11.5783" fill="black"/>
<path d="M10.5536 22.5561C5.80851 21.4244 3.76078 21.9704 1 24.6511C1.65439 37.3213 2.89106 44.4305 6.97102 57.1237H14.1363C15.2154 43.6161 14.7491 36.0466 10.5536 22.5561Z" fill="white" stroke="white"/>
<path d="M8.68481 75.64C6.87397 73.2351 6.53714 71.8626 7.49061 69.355C11.6877 68.3683 14.0413 68.4528 18.2385 69.355C19.3338 72.2185 19.1706 73.8239 18.2385 76.6875C14.3259 77.2601 12.2188 77.1204 8.68481 75.64Z" fill="white" stroke="white"/>
</svg>
